<svg xmlns="http://www.w3.org/2000/svg" xml:space="preserve" style="fill-rule:evenodd;clip-rule:evenodd;stroke-linejoin:round;stroke-miterlimit:2" viewBox="0 0 393 52">
  <path d="M24.807 133.52c0 14.166-.388 15.136-3.493 23.48h26.197c-2.716-6.598-3.299-10.285-3.299-23.868v-24.839h.388L77.589 157h27.749c-5.239-5.239-10.867-10.867-19.017-22.51l-17.076-24.062c8.15-3.105 21.734-8.344 21.734-26.973 0-7.568-3.881-16.688-11.449-22.898-5.434-4.463-13.778-8.344-31.825-8.344-9.12 0-12.419.582-26.779.582 1.941 4.463 3.881 7.956 3.881 15.33v65.395Zm19.405-67.724c10.867 0 25.227 1.747 25.227 19.405 0 11.061-8.538 18.241-19.793 18.241-1.941 0-3.687-.194-5.434-.194V65.796ZM129.789 157c-.777-1.746-.971-2.717-.971-4.851 0-3.299 1.553-7.956 2.717-11.255l6.016-17.465h32.6l6.404 17.465c1.164 3.299 2.328 6.598 2.328 9.896 0 2.135-.97 4.269-1.94 6.21h27.943c-3.881-6.016-6.015-10.867-8.926-19.211l-26.197-72.187c-1.94-5.045-3.493-9.702-3.493-11.061 0-.582 0-1.164.194-1.746h-24.062l3.299 4.463-30.272 80.531c-3.299 8.732-6.792 14.942-9.12 19.211h23.48Zm24.45-79.561h.388l10.479 31.436H142.79l11.449-31.436ZM218.858 133.52c0 14.166-.388 15.136-3.493 23.48h26.197c-2.717-6.598-3.299-10.285-3.299-23.868v-24.839h.388L271.639 157h27.75c-5.24-5.239-10.867-10.867-19.017-22.51l-17.077-24.062c8.15-3.105 21.734-8.344 21.734-26.973 0-7.568-3.881-16.688-11.449-22.898-5.433-4.463-13.778-8.344-31.824-8.344-9.121 0-12.42.582-26.779.582 1.94 4.463 3.881 7.956 3.881 15.33v65.395Zm19.405-67.724c10.867 0 25.226 1.747 25.226 19.405 0 11.061-8.538 18.241-19.793 18.241-1.94 0-3.687-.194-5.433-.194V65.796ZM364.008 157l5.627-17.853c-7.374 2.135-14.554 4.269-31.436 4.269-2.329 0-5.628-.194-7.956-.388V111.01c3.299-.194 6.986-.388 9.896-.388 6.21 0 11.837 1.164 18.241 2.523l5.433-16.107h-33.57V66.767c1.94-.389 5.239-.389 7.18-.389 14.553 0 16.494.583 25.226 3.493l5.434-17.076h-60.932c2.328 4.463 3.687 6.598 3.687 19.017v66.171c0 12.419-1.359 14.554-3.687 19.017h56.857ZM455.211 65.602c1.165-.194 3.299-.194 4.657-.194 9.897 0 18.047 5.24 18.047 16.494 0 10.673-8.732 15.719-19.211 15.719-1.164 0-2.328 0-3.493-.194V65.602Zm0 39.781h3.299c13.195 0 25.033 8.344 25.033 19.793 0 11.061-7.18 19.211-21.152 19.211h-7.18v-39.004Zm.388 51.617c18.047 0 24.257-1.552 31.242-4.657 9.121-4.657 16.689-14.748 16.689-25.421 0-17.658-14.166-23.868-19.211-26.585 3.493-2.522 13.583-8.15 13.583-21.927 0-8.733-4.657-15.719-13.583-20.958-6.598-3.881-12.614-4.657-28.72-4.657h-23.48c2.329 4.463 3.687 6.598 3.687 19.017v66.171c0 12.419-1.358 14.554-3.687 19.017h23.48ZM572.224 157l5.627-17.853c-7.374 2.135-14.554 4.269-31.436 4.269-2.329 0-5.628-.194-7.956-.388V111.01c3.299-.194 6.986-.388 9.896-.388 6.21 0 11.838 1.164 18.241 2.523l5.434-16.107h-33.571V66.767c1.94-.389 5.239-.389 7.18-.389 14.554 0 16.494.583 25.226 3.493l5.434-17.076h-60.932c2.328 4.463 3.687 6.598 3.687 19.017v66.171c0 12.419-1.359 14.554-3.687 19.017h56.857ZM603.854 157c-.776-1.746-.97-2.717-.97-4.851 0-3.299 1.552-7.956 2.716-11.255l6.016-17.465h32.6l6.404 17.465c1.164 3.299 2.329 6.598 2.329 9.896 0 2.135-.971 4.269-1.941 6.21h27.943c-3.881-6.016-6.015-10.867-8.926-19.211l-26.197-72.187c-1.94-5.045-3.493-9.702-3.493-11.061 0-.582 0-1.164.194-1.746h-24.062l3.299 4.463-30.272 80.531c-3.299 8.732-6.792 14.942-9.12 19.211h23.48Zm24.45-79.561h.388l10.479 31.436h-22.316l11.449-31.436ZM684.967 153.895c6.016 1.553 16.494 5.046 28.137 5.046 19.211 0 35.706-15.33 35.706-32.795 0-29.108-44.438-29.69-44.438-49.095 0-6.986 6.986-12.613 16.106-12.613 9.703 0 16.883 5.433 21.928 8.926l.97-18.435c-5.239-1.164-13.972-4.075-23.48-4.075-19.599 0-33.959 13.972-33.959 31.243 0 30.465 44.438 28.719 44.438 48.318 0 8.926-8.15 14.942-18.629 14.942-12.225 0-17.853-5.433-25.809-11.837l-.97 20.375ZM809.547 157c-4.269-7.762-5.045-11.255-5.045-26.779V66.378c12.613.389 15.524.777 27.555 3.687l5.822-17.27h-77.62l-6.792 17.853c12.419-3.299 18.629-3.881 31.63-4.27v63.843c0 15.524-.388 18.241-4.851 26.779h29.301Z" style="fill:#fff;fill-rule:nonzero" transform="matrix(.48 0 0 .48 -10.045 -24.43)"/>
</svg>